<?xml version="1.0" encoding="UTF-8" standalone="no"?>
<!-- Created with Inkscape (http://www.inkscape.org/) -->

<svg
   xmlns:dc="http://purl.org/dc/elements/1.1/"
   xmlns:cc="http://creativecommons.org/ns#"
   xmlns:rdf="http://www.w3.org/1999/02/22-rdf-syntax-ns#"
   xmlns:svg="http://www.w3.org/2000/svg"
   xmlns="http://www.w3.org/2000/svg"
   version="1.1"
   width="480.42783"
   height="466.06009"
   id="svg57260">
  <metadata
     id="metadata57266">
    <rdf:RDF>
      <cc:Work
         rdf:about="">
        <dc:format>image/svg+xml</dc:format>
        <dc:type
           rdf:resource="http://purl.org/dc/dcmitype/StillImage" />
        <dc:title></dc:title>
      </cc:Work>
    </rdf:RDF>
  </metadata>
  <defs
     id="defs57264" />
  <rect
     width="399"
     height="399"
     x="66.034515"
     y="20.108032"
     id="rect57270"
     style="fill:none;stroke:#000000;stroke-width:2;stroke-linecap:butt;stroke-miterlimit:4;stroke-opacity:1;stroke-dasharray:none;stroke-dashoffset:0" />
  <path
     d="m 800.84747,175.42372 a 183.05084,183.05084 0 1 1 -366.10168,0 183.05084,183.05084 0 1 1 366.10168,0 z"
     transform="matrix(1.0898611,0,0,1.0898611,-407.778,28.420542)"
     id="path57780"
     style="fill:none;stroke:#000000;stroke-width:1.83509624;stroke-linecap:butt;stroke-miterlimit:4;stroke-opacity:1;stroke-dasharray:none;stroke-dashoffset:0" />
  <path
     d="m 679.5416,-1.3435503 a 15.100924,15.100924 0 1 1 -30.20185,0 15.100924,15.100924 0 1 1 30.20185,0 z"
     transform="matrix(0.39390843,0,0,0.39390843,24.657427,30.073399)"
     id="path57782"
     style="fill:#ff0101;fill-opacity:1;stroke:none" />
  <path
     d="m 679.5416,-1.3435503 a 15.100924,15.100924 0 1 1 -30.20185,0 15.100924,15.100924 0 1 1 30.20185,0 z"
     transform="matrix(0.39390843,0,0,0.39390843,-60.003593,46.090348)"
     id="path57784"
     style="fill:#ff0101;fill-opacity:1;stroke:none" />
  <path
     d="m 679.5416,-1.3435503 a 15.100924,15.100924 0 1 1 -30.20185,0 15.100924,15.100924 0 1 1 30.20185,0 z"
     transform="matrix(0.39390843,0,0,0.39390843,7.8777673,59.05645)"
     id="path57786"
     style="fill:#ff0101;fill-opacity:1;stroke:none" />
  <path
     d="m 679.5416,-1.3435503 a 15.100924,15.100924 0 1 1 -30.20185,0 15.100924,15.100924 0 1 1 30.20185,0 z"
     transform="matrix(0.39390843,0,0,0.39390843,-2.4188427,62.870009)"
     id="path57788"
     style="fill:#ff0101;fill-opacity:1;stroke:none" />
  <path
     d="m 679.5416,-1.3435503 a 15.100924,15.100924 0 1 1 -30.20185,0 15.100924,15.100924 0 1 1 30.20185,0 z"
     transform="matrix(0.39390843,0,0,0.39390843,-50.088333,98.336111)"
     id="path57790"
     style="fill:#ff0101;fill-opacity:1;stroke:none" />
  <path
     d="m 679.5416,-1.3435503 a 15.100924,15.100924 0 1 1 -30.20185,0 15.100924,15.100924 0 1 1 30.20185,0 z"
     transform="matrix(0.39390843,0,0,0.39390843,-84.029013,128.46323)"
     id="path57792"
     style="fill:#ff0101;fill-opacity:1;stroke:none" />
  <path
     d="m 679.5416,-1.3435503 a 15.100924,15.100924 0 1 1 -30.20185,0 15.100924,15.100924 0 1 1 30.20185,0 z"
     transform="matrix(0.39390843,0,0,0.39390843,-125.59681,88.039501)"
     id="path57794"
     style="fill:#ff0101;fill-opacity:1;stroke:none" />
  <path
     d="m 679.5416,-1.3435503 a 15.100924,15.100924 0 1 1 -30.20185,0 15.100924,15.100924 0 1 1 30.20185,0 z"
     transform="matrix(0.39390843,0,0,0.39390843,-141.2324,85.370009)"
     id="path57796"
     style="fill:#ff0101;fill-opacity:1;stroke:none" />
  <path
     d="m 679.5416,-1.3435503 a 15.100924,15.100924 0 1 1 -30.20185,0 15.100924,15.100924 0 1 1 30.20185,0 z"
     transform="matrix(0.39390843,0,0,0.39390843,-146.57138,128.08187)"
     id="path57798"
     style="fill:#ff0101;fill-opacity:1;stroke:none" />
  <path
     d="m 679.5416,-1.3435503 a 15.100924,15.100924 0 1 1 -30.20185,0 15.100924,15.100924 0 1 1 30.20185,0 z"
     transform="matrix(0.39390843,0,0,0.39390843,-36.359523,121.21747)"
     id="path57800"
     style="fill:#ff0101;fill-opacity:1;stroke:none" />
  <path
     d="m 679.5416,-1.3435503 a 15.100924,15.100924 0 1 1 -30.20185,0 15.100924,15.100924 0 1 1 30.20185,0 z"
     transform="matrix(0.39390843,0,0,0.39390843,-53.901893,154.77679)"
     id="path57802"
     style="fill:#ff0101;fill-opacity:1;stroke:none" />
  <path
     d="m 679.5416,-1.3435503 a 15.100924,15.100924 0 1 1 -30.20185,0 15.100924,15.100924 0 1 1 30.20185,0 z"
     transform="matrix(0.39390843,0,0,0.39390843,-141.61375,184.90391)"
     id="path57804"
     style="fill:#ff0101;fill-opacity:1;stroke:none" />
  <path
     d="m 679.5416,-1.3435503 a 15.100924,15.100924 0 1 1 -30.20185,0 15.100924,15.100924 0 1 1 30.20185,0 z"
     transform="matrix(0.39390843,0,0,0.39390843,1.0133673,143.33611)"
     id="path57806"
     style="fill:#ff0101;fill-opacity:1;stroke:none" />
  <path
     d="m 679.5416,-1.3435503 a 15.100924,15.100924 0 1 1 -30.20185,0 15.100924,15.100924 0 1 1 30.20185,0 z"
     transform="matrix(0.39390843,0,0,0.39390843,26.182857,112.06492)"
     id="path57808"
     style="fill:#ff0101;fill-opacity:1;stroke:none" />
  <path
     d="m 679.5416,-1.3435503 a 15.100924,15.100924 0 1 1 -30.20185,0 15.100924,15.100924 0 1 1 30.20185,0 z"
     transform="matrix(0.39390843,0,0,0.39390843,62.030317,87.276787)"
     id="path57810"
     style="fill:#ff0101;fill-opacity:1;stroke:none" />
  <path
     d="m 679.5416,-1.3435503 a 15.100924,15.100924 0 1 1 -30.20185,0 15.100924,15.100924 0 1 1 30.20185,0 z"
     transform="matrix(0.39390843,0,0,0.39390843,89.869297,78.886956)"
     id="path57812"
     style="fill:#ff0101;fill-opacity:1;stroke:none" />
  <path
     d="m 679.5416,-1.3435503 a 15.100924,15.100924 0 1 1 -30.20185,0 15.100924,15.100924 0 1 1 30.20185,0 z"
     transform="matrix(0.39390843,0,0,0.39390843,137.92014,125.79374)"
     id="path57814"
     style="fill:#ff0101;fill-opacity:1;stroke:none" />
  <path
     d="m 679.5416,-1.3435503 a 15.100924,15.100924 0 1 1 -30.20185,0 15.100924,15.100924 0 1 1 30.20185,0 z"
     transform="matrix(0.39390843,0,0,0.39390843,84.911667,129.22594)"
     id="path57816"
     style="fill:#ff0101;fill-opacity:1;stroke:none" />
  <path
     d="m 679.5416,-1.3435503 a 15.100924,15.100924 0 1 1 -30.20185,0 15.100924,15.100924 0 1 1 30.20185,0 z"
     transform="matrix(0.39390843,0,0,0.39390843,116.56421,142.95475)"
     id="path57818"
     style="fill:#ff0101;fill-opacity:1;stroke:none" />
  <path
     d="m 679.5416,-1.3435503 a 15.100924,15.100924 0 1 1 -30.20185,0 15.100924,15.100924 0 1 1 30.20185,0 z"
     transform="matrix(0.39390843,0,0,0.39390843,39.148957,156.30221)"
     id="path57820"
     style="fill:#ff0101;fill-opacity:1;stroke:none" />
  <path
     d="m 679.5416,-1.3435503 a 15.100924,15.100924 0 1 1 -30.20185,0 15.100924,15.100924 0 1 1 30.20185,0 z"
     transform="matrix(0.39390843,0,0,0.39390843,87.581157,171.55645)"
     id="path57822"
     style="fill:#ff0101;fill-opacity:1;stroke:none" />
  <path
     d="m 679.5416,-1.3435503 a 15.100924,15.100924 0 1 1 -30.20185,0 15.100924,15.100924 0 1 1 30.20185,0 z"
     transform="matrix(0.39390843,0,0,0.39390843,89.869297,173.46323)"
     id="path57824"
     style="fill:#ff0101;fill-opacity:1;stroke:none" />
  <path
     d="m 679.5416,-1.3435503 a 15.100924,15.100924 0 1 1 -30.20185,0 15.100924,15.100924 0 1 1 30.20185,0 z"
     transform="matrix(0.39390843,0,0,0.39390843,71.564217,230.66662)"
     id="path57826"
     style="fill:#ff0101;fill-opacity:1;stroke:none" />
  <path
     d="m 679.5416,-1.3435503 a 15.100924,15.100924 0 1 1 -30.20185,0 15.100924,15.100924 0 1 1 30.20185,0 z"
     transform="matrix(0.39390843,0,0,0.39390843,106.64897,254.69204)"
     id="path57828"
     style="fill:#ff0101;fill-opacity:1;stroke:none" />
  <path
     d="m 679.5416,-1.3435503 a 15.100924,15.100924 0 1 1 -30.20185,0 15.100924,15.100924 0 1 1 30.20185,0 z"
     transform="matrix(0.39390843,0,0,0.39390843,3.6828673,248.20899)"
     id="path57830"
     style="fill:#ff0101;fill-opacity:1;stroke:none" />
  <path
     d="m 679.5416,-1.3435503 a 15.100924,15.100924 0 1 1 -30.20185,0 15.100924,15.100924 0 1 1 30.20185,0 z"
     transform="matrix(0.39390843,0,0,0.39390843,137.92016,291.68357)"
     id="path57832"
     style="fill:#ff0101;fill-opacity:1;stroke:none" />
  <path
     d="m 679.5416,-1.3435503 a 15.100924,15.100924 0 1 1 -30.20185,0 15.100924,15.100924 0 1 1 30.20185,0 z"
     transform="matrix(0.39390843,0,0,0.39390843,50.589647,277.19204)"
     id="path57834"
     style="fill:#ff0101;fill-opacity:1;stroke:none" />
  <path
     d="m 679.5416,-1.3435503 a 15.100924,15.100924 0 1 1 -30.20185,0 15.100924,15.100924 0 1 1 30.20185,0 z"
     transform="matrix(0.39390843,0,0,0.39390843,22.750667,289.01407)"
     id="path57836"
     style="fill:#ff0101;fill-opacity:1;stroke:none" />
  <path
     d="m 679.5416,-1.3435503 a 15.100924,15.100924 0 1 1 -30.20185,0 15.100924,15.100924 0 1 1 30.20185,0 z"
     transform="matrix(0.39390843,0,0,0.39390843,53.640497,325.62424)"
     id="path57838"
     style="fill:#ff0101;fill-opacity:1;stroke:none" />
  <path
     d="m 679.5416,-1.3435503 a 15.100924,15.100924 0 1 1 -30.20185,0 15.100924,15.100924 0 1 1 30.20185,0 z"
     transform="matrix(0.39390843,0,0,0.39390843,54.784567,379.77678)"
     id="path57840"
     style="fill:#ff0101;fill-opacity:1;stroke:none" />
  <path
     d="m 679.5416,-1.3435503 a 15.100924,15.100924 0 1 1 -30.20185,0 15.100924,15.100924 0 1 1 30.20185,0 z"
     transform="matrix(0.39390843,0,0,0.39390843,-39.791703,397.70051)"
     id="path57842"
     style="fill:#ff0101;fill-opacity:1;stroke:none" />
  <path
     d="m 679.5416,-1.3435503 a 15.100924,15.100924 0 1 1 -30.20185,0 15.100924,15.100924 0 1 1 30.20185,0 z"
     transform="matrix(0.39390843,0,0,0.39390843,-16.910343,324.86153)"
     id="path57844"
     style="fill:#ff0101;fill-opacity:1;stroke:none" />
  <path
     d="m 679.5416,-1.3435503 a 15.100924,15.100924 0 1 1 -30.20185,0 15.100924,15.100924 0 1 1 30.20185,0 z"
     transform="matrix(0.39390843,0,0,0.39390843,-60.384923,336.30221)"
     id="path57846"
     style="fill:#ff0101;fill-opacity:1;stroke:none" />
  <path
     d="m 679.5416,-1.3435503 a 15.100924,15.100924 0 1 1 -30.20185,0 15.100924,15.100924 0 1 1 30.20185,0 z"
     transform="matrix(0.39390843,0,0,0.39390843,-71.062893,348.88696)"
     id="path57848"
     style="fill:#ff0101;fill-opacity:1;stroke:none" />
  <path
     d="m 679.5416,-1.3435503 a 15.100924,15.100924 0 1 1 -30.20185,0 15.100924,15.100924 0 1 1 30.20185,0 z"
     transform="matrix(0.39390843,0,0,0.39390843,-84.791703,327.91238)"
     id="path57850"
     style="fill:#ff0101;fill-opacity:1;stroke:none" />
  <path
     d="m 679.5416,-1.3435503 a 15.100924,15.100924 0 1 1 -30.20185,0 15.100924,15.100924 0 1 1 30.20185,0 z"
     transform="matrix(0.39390843,0,0,0.39390843,-106.91034,312.65814)"
     id="path57852"
     style="fill:#ff0101;fill-opacity:1;stroke:none" />
  <path
     d="m 679.5416,-1.3435503 a 15.100924,15.100924 0 1 1 -30.20185,0 15.100924,15.100924 0 1 1 30.20185,0 z"
     transform="matrix(0.39390843,0,0,0.39390843,-141.23237,264.22594)"
     id="path57854"
     style="fill:#ff0101;fill-opacity:1;stroke:none" />
  <path
     d="m 679.5416,-1.3435503 a 15.100924,15.100924 0 1 1 -30.20185,0 15.100924,15.100924 0 1 1 30.20185,0 z"
     transform="matrix(0.39390843,0,0,0.39390843,-156.86796,224.94628)"
     id="path57856"
     style="fill:#ff0101;fill-opacity:1;stroke:none" />
  <path
     d="m 679.5416,-1.3435503 a 15.100924,15.100924 0 1 1 -30.20185,0 15.100924,15.100924 0 1 1 30.20185,0 z"
     transform="matrix(0.39390843,0,0,0.39390843,-180.13067,269.56492)"
     id="path57858"
     style="fill:#ff0101;fill-opacity:1;stroke:none" />
  <path
     d="m 679.5416,-1.3435503 a 15.100924,15.100924 0 1 1 -30.20185,0 15.100924,15.100924 0 1 1 30.20185,0 z"
     transform="matrix(0.39390843,0,0,0.39390843,-176.69847,280.62424)"
     id="path57860"
     style="fill:#ff0101;fill-opacity:1;stroke:none" />
  <path
     d="m 679.5416,-1.3435503 a 15.100924,15.100924 0 1 1 -30.20185,0 15.100924,15.100924 0 1 1 30.20185,0 z"
     transform="matrix(0.39390843,0,0,0.39390843,109.31845,47.997125)"
     id="path57862"
     style="fill:#0000ff;fill-opacity:1;stroke:none" />
  <path
     d="m 679.5416,-1.3435503 a 15.100924,15.100924 0 1 1 -30.20185,0 15.100924,15.100924 0 1 1 30.20185,0 z"
     transform="matrix(0.39390843,0,0,0.39390843,174.14896,54.861532)"
     id="path57864"
     style="fill:#0000ff;fill-opacity:1;stroke:none" />
  <path
     d="m 679.5416,-1.3435503 a 15.100924,15.100924 0 1 1 -30.20185,0 15.100924,15.100924 0 1 1 30.20185,0 z"
     transform="matrix(0.39390843,0,0,0.39390843,202.75065,96.810684)"
     id="path57866"
     style="fill:#0000ff;fill-opacity:1;stroke:none" />
  <path
     d="m 679.5416,-1.3435503 a 15.100924,15.100924 0 1 1 -30.20185,0 15.100924,15.100924 0 1 1 30.20185,0 z"
     transform="matrix(0.39390843,0,0,0.39390843,172.62353,112.82763)"
     id="path57868"
     style="fill:#0000ff;fill-opacity:1;stroke:none" />
  <path
     d="m 679.5416,-1.3435503 a 15.100924,15.100924 0 1 1 -30.20185,0 15.100924,15.100924 0 1 1 30.20185,0 z"
     transform="matrix(0.39390843,0,0,0.39390843,192.8354,288.25136)"
     id="path57870"
     style="fill:#0000ff;fill-opacity:1;stroke:none" />
  <path
     d="m 679.5416,-1.3435503 a 15.100924,15.100924 0 1 1 -30.20185,0 15.100924,15.100924 0 1 1 30.20185,0 z"
     transform="matrix(0.39390843,0,0,0.39390843,184.82693,406.85306)"
     id="path57872"
     style="fill:#0000ff;fill-opacity:1;stroke:none" />
  <path
     d="m 679.5416,-1.3435503 a 15.100924,15.100924 0 1 1 -30.20185,0 15.100924,15.100924 0 1 1 30.20185,0 z"
     transform="matrix(0.39390843,0,0,0.39390843,-152.29172,346.59882)"
     id="path57874"
     style="fill:#0000ff;fill-opacity:1;stroke:none" />
  <path
     d="m 679.5416,-1.3435503 a 15.100924,15.100924 0 1 1 -30.20185,0 15.100924,15.100924 0 1 1 30.20185,0 z"
     transform="matrix(0.39390843,0,0,0.39390843,-157.6307,403.0395)"
     id="path57876"
     style="fill:#0000ff;fill-opacity:1;stroke:none" />
  <path
     d="m 679.5416,-1.3435503 a 15.100924,15.100924 0 1 1 -30.20185,0 15.100924,15.100924 0 1 1 30.20185,0 z"
     transform="matrix(0.39390843,0,0,0.39390843,-119.49511,62.488648)"
     id="path57878"
     style="fill:#0000ff;fill-opacity:1;stroke:none" />
  <path
     d="m 679.5416,-1.3435503 a 15.100924,15.100924 0 1 1 -30.20185,0 15.100924,15.100924 0 1 1 30.20185,0 z"
     transform="matrix(0.39390843,0,0,0.39390843,-192.33409,83.463224)"
     id="path57880"
     style="fill:#0000ff;fill-opacity:1;stroke:none" />
  <path
     d="m 65.271807,219.62043 9.26808,0"
     id="path57882"
     style="fill:none;stroke:#000000;stroke-width:2;stroke-linecap:butt;stroke-linejoin:miter;stroke-miterlimit:4;stroke-opacity:1;stroke-dasharray:none" />
  <path
     d="m 65.271807,119.87662 9.26808,0"
     id="path57884"
     style="fill:none;stroke:#000000;stroke-width:2;stroke-linecap:butt;stroke-linejoin:miter;stroke-miterlimit:4;stroke-opacity:1;stroke-dasharray:none" />
  <path
     d="m 65.271807,319.36424 9.26808,0"
     id="path57888"
     style="fill:none;stroke:#000000;stroke-width:2;stroke-linecap:butt;stroke-linejoin:miter;stroke-miterlimit:4;stroke-opacity:1;stroke-dasharray:none" />
  <path
     d="m 265.54688,409.83996 0,9.26808"
     id="path57935"
     style="fill:none;stroke:#000000;stroke-width:2;stroke-linecap:butt;stroke-linejoin:miter;stroke-miterlimit:4;stroke-opacity:1;stroke-dasharray:none" />
  <path
     d="m 365.29068,409.83996 0,9.26808"
     id="path57937"
     style="fill:none;stroke:#000000;stroke-width:2;stroke-linecap:butt;stroke-linejoin:miter;stroke-miterlimit:4;stroke-opacity:1;stroke-dasharray:none" />
  <path
     d="m 165.80307,409.83996 0,9.26808"
     id="path57941"
     style="fill:none;stroke:#000000;stroke-width:2;stroke-linecap:butt;stroke-linejoin:miter;stroke-miterlimit:4;stroke-opacity:1;stroke-dasharray:none" />
  <text
     x="57.400391"
     y="30.125"
     id="text57959"
     xml:space="preserve"
     style="font-size:28px;font-style:normal;font-variant:normal;font-weight:normal;font-stretch:normal;text-align:end;line-height:125%;letter-spacing:0px;word-spacing:0px;writing-mode:lr-tb;text-anchor:end;fill:#000000;fill-opacity:1;stroke:none;font-family:Arial;-inkscape-font-specification:Arial"><tspan
       x="57.400391"
       y="30.125"
       id="tspan57961">1</tspan></text>
  <text
     x="57.400391"
     y="128.51483"
     id="text57963"
     xml:space="preserve"
     style="font-size:28px;font-style:normal;font-variant:normal;font-weight:normal;font-stretch:normal;text-align:end;line-height:125%;letter-spacing:0px;word-spacing:0px;writing-mode:lr-tb;text-anchor:end;fill:#000000;fill-opacity:1;stroke:none;font-family:Arial;-inkscape-font-specification:Arial"><tspan
       x="57.400391"
       y="128.51483"
       id="tspan57965">0.5</tspan></text>
  <text
     x="57.400391"
     y="227.66739"
     id="text57967"
     xml:space="preserve"
     style="font-size:28px;font-style:normal;font-variant:normal;font-weight:normal;font-stretch:normal;text-align:end;line-height:125%;letter-spacing:0px;word-spacing:0px;writing-mode:lr-tb;text-anchor:end;fill:#000000;fill-opacity:1;stroke:none;font-family:Arial;-inkscape-font-specification:Arial"><tspan
       x="57.400391"
       y="227.66739"
       id="tspan57969">0</tspan></text>
  <text
     x="57.400391"
     y="328.34537"
     id="text57971"
     xml:space="preserve"
     style="font-size:28px;font-style:normal;font-variant:normal;font-weight:normal;font-stretch:normal;text-align:end;line-height:125%;letter-spacing:0px;word-spacing:0px;writing-mode:lr-tb;text-anchor:end;fill:#000000;fill-opacity:1;stroke:none;font-family:Arial;-inkscape-font-specification:Arial"><tspan
       x="57.400391"
       y="328.34537"
       id="tspan57973">-0.5</tspan></text>
  <text
     x="57.400391"
     y="429.02335"
     id="text57975"
     xml:space="preserve"
     style="font-size:28px;font-style:normal;font-variant:normal;font-weight:normal;font-stretch:normal;text-align:end;line-height:125%;letter-spacing:0px;word-spacing:0px;writing-mode:lr-tb;text-anchor:end;fill:#000000;fill-opacity:1;stroke:none;font-family:Arial;-inkscape-font-specification:Arial"><tspan
       x="57.400391"
       y="429.02335"
       id="tspan57977">-1</tspan></text>
  <text
     x="64.732788"
     y="455.71829"
     id="text57979"
     xml:space="preserve"
     style="font-size:28px;font-style:normal;font-variant:normal;font-weight:normal;font-stretch:normal;text-align:center;line-height:125%;letter-spacing:0px;word-spacing:0px;writing-mode:lr-tb;text-anchor:middle;fill:#000000;fill-opacity:1;stroke:none;font-family:Arial;-inkscape-font-specification:Arial"><tspan
       x="64.732788"
       y="455.71829"
       id="tspan57981">-1</tspan></text>
  <text
     x="161.59723"
     y="455.71829"
     id="text57983"
     xml:space="preserve"
     style="font-size:28px;font-style:normal;font-variant:normal;font-weight:normal;font-stretch:normal;text-align:center;line-height:125%;letter-spacing:0px;word-spacing:0px;writing-mode:lr-tb;text-anchor:middle;fill:#000000;fill-opacity:1;stroke:none;font-family:Arial;-inkscape-font-specification:Arial"><tspan
       x="161.59723"
       y="455.71829"
       id="tspan57985">-0.5</tspan></text>
  <text
     x="266.08881"
     y="455.71829"
     id="text57987"
     xml:space="preserve"
     style="font-size:28px;font-style:normal;font-variant:normal;font-weight:normal;font-stretch:normal;text-align:center;line-height:125%;letter-spacing:0px;word-spacing:0px;writing-mode:lr-tb;text-anchor:middle;fill:#000000;fill-opacity:1;stroke:none;font-family:Arial;-inkscape-font-specification:Arial"><tspan
       x="266.08881"
       y="455.71829"
       id="tspan57989">0</tspan></text>
  <text
     x="365.24133"
     y="455.71829"
     id="text57991"
     xml:space="preserve"
     style="font-size:28px;font-style:normal;font-variant:normal;font-weight:normal;font-stretch:normal;text-align:center;line-height:125%;letter-spacing:0px;word-spacing:0px;writing-mode:lr-tb;text-anchor:middle;fill:#000000;fill-opacity:1;stroke:none;font-family:Arial;-inkscape-font-specification:Arial"><tspan
       x="365.24133"
       y="455.71829"
       id="tspan57993">0.5</tspan></text>
  <text
     x="465.91931"
     y="455.71829"
     id="text57995"
     xml:space="preserve"
     style="font-size:28px;font-style:normal;font-variant:normal;font-weight:normal;font-stretch:normal;text-align:center;line-height:125%;letter-spacing:0px;word-spacing:0px;writing-mode:lr-tb;text-anchor:middle;fill:#000000;fill-opacity:1;stroke:none;font-family:Arial;-inkscape-font-specification:Arial"><tspan
       x="465.91931"
       y="455.71829"
       id="tspan57997">1</tspan></text>
</svg>
